<?xml version="1.0" encoding="UTF-8"?>
<!-- Generator: Adobe Illustrator 17.1.0, SVG Export Plug-In . SVG Version: 6.00 Build 0)  -->
<!DOCTYPE svg PUBLIC "-//W3C//DTD SVG 1.1//EN" "http://www.w3.org/Graphics/SVG/1.1/DTD/svg11.dtd">
<svg version="1.1" id="Layer_1" xmlns="http://www.w3.org/2000/svg" xmlns:xlink="http://www.w3.org/1999/xlink" x="0px" y="0px" viewBox="0 0 492 91.3" enable-background="new 0 0 492 91.3" xml:space="preserve">
<path fill="#738BD7" d="M33.2,1.3H0v37.3l22.1,19.9V22.2H34c7.5,0,11.2,3.6,11.2,9.4v27.7c0,5.8-3.5,9.7-11.2,9.7H0V90h33.2  c17.8,0.1,34.5-8.8,34.5-29.2V31C67.7,10.3,51,1.3,33.2,1.3z M207.3,60.9V30.3c0-11,19.8-13.5,25.8-2.5l18.3-7.4  C244.3,4.6,231.1,0,220.2,0c-17.8,0-35.4,10.3-35.4,30.3v30.6c0,20.2,17.6,30.3,35,30.3c11.2,0,24.6-5.5,32-19.9l-19.6-9  C227.4,74.6,207.3,71.6,207.3,60.9z M146.7,34.5c-6.9-1.5-11.5-4-11.8-8.3c0.4-10.3,16.3-10.7,25.6-0.8l14.7-11.3  C166,3,155.6,0,144.8,0c-16.3,0-32.1,9.2-32.1,26.6c0,16.9,13,26,27.3,28.2c7.3,1,15.4,3.9,15.2,8.9c-0.6,9.5-20.2,9-29.1-1.8  L112,75.2c8.3,10.7,19.6,16.1,30.2,16.1c16.3,0,34.4-9.4,35.1-26.6C178.3,42.9,162.5,37.4,146.7,34.5z M79.8,90h22.4V1.3H79.8V90z   M457.5,1.3h-33.2v37.3l22.1,19.9V22.2h11.8c7.5,0,11.2,3.6,11.2,9.4v27.7c0,5.8-3.5,9.7-11.2,9.7h-34V90h33.2  c17.8,0.1,34.5-8.8,34.5-29.2V31C492,10.3,475.3,1.3,457.5,1.3z M294.6,0c-18.4,0-36.7,10-36.7,30.5v30.3  c0,20.3,18.4,30.5,36.9,30.5s36.7-10.2,36.7-30.5V30.5C331.4,10.2,313,0,294.6,0z M309,60.8c0,6.4-7.2,9.7-14.3,9.7  c-7.2,0-14.4-3.1-14.4-9.7V30.5c0-6.5,7-10,14-10c7.3,0,14.7,3.1,14.7,10V60.8z M411.8,30.5c-0.5-20.8-14.7-29.2-33-29.2h-35.5V90  H366V61.8h4L390.6,90h28l-24.2-30.5C405.2,56.2,411.8,46.9,411.8,30.5z M379.2,42.5H366V22.2h13.2C393.4,22.2,393.4,42.5,379.2,42.5  z"/>
</svg>